<svg xmlns="http://www.w3.org/2000/svg" width="66.335" height="78.959" viewBox="0 0 66.335 78.959">
  <path id="financial" d="M110.6,51.616a1.044,1.044,0,1,1-2.087,0,1.479,1.479,0,0,0-1.02-1.442,2.466,2.466,0,0,0-1.643,0,1.479,1.479,0,0,0-1.02,1.442c0,1.178,1.028,1.4,2.057,1.627,1.856.4,3.714.81,3.714,3.681a3.479,3.479,0,0,1-2.39,3.4,4.323,4.323,0,0,1-.5.149v.716a1.044,1.044,0,1,1-2.087,0v-.716a4.339,4.339,0,0,1-.5-.149,3.479,3.479,0,0,1-2.39-3.4,1.044,1.044,0,1,1,2.087,0,1.479,1.479,0,0,0,1.02,1.442,2.467,2.467,0,0,0,1.643,0,1.479,1.479,0,0,0,1.02-1.442c0-1.192-1.034-1.417-2.067-1.643-1.853-.4-3.7-.808-3.7-3.665a3.479,3.479,0,0,1,2.39-3.4,4.338,4.338,0,0,1,.5-.149v-.716a1.044,1.044,0,1,1,2.087,0v.716a4.326,4.326,0,0,1,.5.149,3.479,3.479,0,0,1,2.39,3.4ZM83.707,21.956A1.594,1.594,0,1,0,85.3,23.55a1.594,1.594,0,0,0-1.594-1.594Zm11.469,5.785a1.594,1.594,0,1,0,1.594,1.594,1.595,1.595,0,0,0-1.594-1.594ZM72.238,32.577a1.594,1.594,0,1,0,1.594,1.594,1.594,1.594,0,0,0-1.594-1.594Zm32.637-14.5a1.041,1.041,0,1,1,.2-2.071l5.479.538a1.041,1.041,0,0,1,.967,1.179l-.538,5.478a1.041,1.041,0,1,1-2.071-.2l.307-3.128-10.61,8.141a3.682,3.682,0,1,1-7.059.663l-5.163-2.6a3.682,3.682,0,0,1-4.626.609l-6.334,5.658a3.679,3.679,0,1,1-1.508-1.44l6.458-5.768a3.682,3.682,0,1,1,6.95-.917l5.162,2.6a3.682,3.682,0,0,1,4.853-.456l10.424-8-2.894-.284Zm9.105,28.884a10.335,10.335,0,1,0,3.027,7.308A10.335,10.335,0,0,0,113.98,46.963ZM67.423,72.725l8.126,12.841,1.023-.6a1.038,1.038,0,0,1,.7-.15L92.6,87.033a6.031,6.031,0,0,0,4.306-.94L117.37,74.277a2.347,2.347,0,0,0,1.16-1.454,2.31,2.31,0,0,0-1.6-2.862,2.562,2.562,0,0,0-1.86.207l-12.357,6.4a4.475,4.475,0,0,1-2.629,4.293,4.114,4.114,0,0,1-3.2.228L84.552,76.961a1.041,1.041,0,0,1,.66-1.974l12.329,4.129a2.073,2.073,0,0,0,1.613-.122,3.269,3.269,0,0,0,1.387-1.425,2.371,2.371,0,0,0-1.5-2.918L82.159,69a6.011,6.011,0,0,0-4.049.021l-10.687,3.7Zm.023,21.75L54.52,74.048a1.041,1.041,0,0,1,.326-1.435l8.053-5.1a1.041,1.041,0,0,1,1.435.326l1.947,3.077,11.153-3.866a8.106,8.106,0,0,1,5.387-.029L99.7,72.679a4.417,4.417,0,0,1,2.367,1.88l12.052-6.244a4.638,4.638,0,0,1,3.368-.362,4.422,4.422,0,0,1,.967,8.1L98.032,87.841A8.065,8.065,0,0,1,92.3,89.1L77.336,86.934l-.674.393.6.944a1.041,1.041,0,0,1-.326,1.435L68.88,94.8a1.041,1.041,0,0,1-1.435-.326ZM56.836,73.817l6.294-3.983L74.943,88.5l-6.294,3.983ZM109.28,42.123V29.9h-5.272V42.134A12.531,12.531,0,0,1,109.28,42.123ZM92.539,59.117v-20.6h5.273v7.047a12.434,12.434,0,0,0-2.581,13.553Zm-11.469,0h5.272V35.01H81.071Zm-11.469,0h5.273V41.951H69.6Zm-6.8,2.087H96.363a12.422,12.422,0,1,0,15-18.438V28.853a1.044,1.044,0,0,0-1.044-1.044h-7.36a1.044,1.044,0,0,0-1.044,1.044V42.789A12.4,12.4,0,0,0,99.9,43.855V37.473a1.044,1.044,0,0,0-1.044-1.044H91.5a1.044,1.044,0,0,0-1.044,1.044V59.117H88.43V33.966a1.044,1.044,0,0,0-1.044-1.044h-7.36a1.044,1.044,0,0,0-1.044,1.044V59.117H76.962V40.907a1.044,1.044,0,0,0-1.044-1.044h-7.36a1.044,1.044,0,0,0-1.044,1.044v18.21H62.805a1.044,1.044,0,1,0,0,2.087Z" transform="translate(-54.36 -16.002)" fill="#b94f91" fill-rule="evenodd"/>
</svg>
