<svg id="grocery" xmlns="http://www.w3.org/2000/svg" width="63.965" height="68.54" viewBox="0 0 63.965 68.54">
  <path id="Path_1337" data-name="Path 1337" d="M367.84,70.227l2.173-.707,2.231,6.855-2.173.707Zm0,0" transform="translate(-315.316 -59.593)" fill="#b94f91"/>
  <path id="Path_1338" data-name="Path 1338" d="M344.391,126.235l2.173-.707,2.232,6.853-2.173.708Zm0,0" transform="translate(-295.215 -107.603)" fill="#b94f91"/>
  <path id="Path_1339" data-name="Path 1339" d="M54.012,21.963a6.225,6.225,0,0,0,1.4,4.859l1.649,2.069V47.978h2.285V30.693l1.65,1.1a1.143,1.143,0,0,0,1.268,0l2.793-1.864,2.793,1.862a1.143,1.143,0,0,0,1.268,0l2.793-1.862,2.793,1.862a1.143,1.143,0,0,0,1.268,0l2.793-1.862,2.793,1.862a1.143,1.143,0,0,0,1.268,0l2.793-1.862,2.285,1.523v34.8H62.776v2.285H94.761a5.718,5.718,0,0,0,5.712-5.712V28.558a1.133,1.133,0,0,0-.245-.691l6.6-17.574a7.694,7.694,0,0,0-.87-7.083A7.3,7.3,0,0,0,99.891,0a7.479,7.479,0,0,0-6.939,4.868L91.161,9.635,89.049,7.523v-4.1a1.142,1.142,0,0,0-1.142-1.142H75.341A1.142,1.142,0,0,0,74.2,3.427v1.96a3.568,3.568,0,0,0-4.607-.156v-1.8a3.386,3.386,0,1,0-6.771,0v1.8a3.5,3.5,0,0,0-4.728.255,3.62,3.62,0,0,0-.02,5.021l1.064,1.1a3.5,3.5,0,0,0-1.037.727l-.007,0-.011.012a3.518,3.518,0,0,0-.651.932l-1.3-2.4-2.01,1.088,2.954,5.452c-.132.075-.265.148-.39.234-.047.032-.088.069-.134.1l-4.42-4.073-1.549,1.68,4.391,4.048A6.233,6.233,0,0,0,54.012,21.963Zm24.122,5.644-2.793,1.864L72.548,27.61a1.143,1.143,0,0,0-1.268,0l-2.767,1.845c-.007-.114-.026-.214-.026-.324a5.127,5.127,0,0,1,9.979-1.669A1.154,1.154,0,0,0,78.134,27.608Zm2.919,1.1-.022-.015a7.415,7.415,0,0,0-10.259-6.419V14.85H81.053ZM98.188,62.828a3.427,3.427,0,0,1-3.427,3.427H90.191v-34.8l2.285-1.525,2.793,1.862a1.143,1.143,0,0,0,1.268,0l1.65-1.1ZM95.091,5.67a5.185,5.185,0,0,1,4.8-3.386A5.043,5.043,0,0,1,104.08,4.5a5.412,5.412,0,0,1,.61,4.984l-7.073,18.84L95.9,29.472,93.11,27.61a1.143,1.143,0,0,0-1.268,0l-2.793,1.862-2.318-1.545ZM90.28,11.984,84.217,28.122l-.88.587V14.181l4.569-4.569Zm-13.8-7.415H86.764V6.854H76.484Zm-.669,4.569h9.335l-3.427,3.427H72.387ZM59.722,7.089a1.216,1.216,0,0,1,1.748,0L63.147,8.8A1.142,1.142,0,0,0,65.1,8V3.427a1.1,1.1,0,1,1,2.2,0V8a1.143,1.143,0,0,0,1.957.8l1.682-1.713a1.237,1.237,0,0,1,1.736,0,1.307,1.307,0,0,1,0,1.827l-3.365,3.427.034.035-.53.53a1.134,1.134,0,0,0-.22.326c-.016.035-.025.071-.038.107a1.143,1.143,0,0,0-.061.3c0,.025-.014.046-.014.071V23.783a7.318,7.318,0,0,0-.722.8l-2.158-4.592a6.167,6.167,0,0,0-3.952-3.2,6.022,6.022,0,0,0-1.221-.185l-.293-.343c-.228-.262-.4-.466-.428-.494a1.323,1.323,0,0,1-.342-1.162,1.267,1.267,0,0,1,.316-.638l.021-.02.028-.031a1.225,1.225,0,0,1,1.537-.144,1.142,1.142,0,0,0,1.46-1.74L59.714,8.92A1.319,1.319,0,0,1,59.722,7.089ZM56.276,22.275a3.93,3.93,0,0,1,1.686-2.727A3.853,3.853,0,0,1,63.559,21l2.912,6.2a7.317,7.317,0,0,0-.17.812l-.6-.4a1.142,1.142,0,0,0-1.268,0l-2.8,1.861L59.1,27.781l-.245-.307L61.8,25.2,60.4,23.39l-2.97,2.3-.254-.316A3.956,3.956,0,0,1,56.276,22.275Zm0,0" transform="translate(-43.356 0)" fill="#b94f91"/>
  <path id="Path_1340" data-name="Path 1340" d="M2.439,340a5.126,5.126,0,0,0,4.61,2.849,5.19,5.19,0,0,0,2.305-.544l.926-.464.928.464a5.185,5.185,0,0,0,2.3.544A5.127,5.127,0,0,0,18.123,340l.4-.8a19.434,19.434,0,0,0,2.04-8.639,5.966,5.966,0,0,0-9.139-5.076v-.914A4.57,4.57,0,0,0,6.854,320v2.285a2.285,2.285,0,0,1,2.285,2.285v.914A5.966,5.966,0,0,0,0,330.559,19.429,19.429,0,0,0,2.04,339.2Zm3.55-13.143a3.68,3.68,0,0,1,2.619,1.085l.865.865a1.143,1.143,0,0,0,1.615,0l.865-.865a3.7,3.7,0,0,1,6.324,2.619,17.111,17.111,0,0,1-1.8,7.62l-.4.8a2.856,2.856,0,0,1-2.567,1.583,2.886,2.886,0,0,1-1.283-.3l-1.438-.72a1.142,1.142,0,0,0-1.021,0l-1.437.72a2.889,2.889,0,0,1-1.284.3,2.856,2.856,0,0,1-2.567-1.587l-.4-.8a17.112,17.112,0,0,1-1.8-7.617A3.71,3.71,0,0,1,5.989,326.854Zm0,0" transform="translate(0 -274.307)" fill="#b94f91"/>
</svg>
