<svg xmlns="http://www.w3.org/2000/svg" width="310" height="58" viewBox="0 0 310 58">
  <g id="Group_22013" data-name="Group 22013" transform="translate(-797 -5969)">
    <rect id="Rectangle_1076" data-name="Rectangle 1076" width="310" height="58" rx="29" transform="translate(797 5969)" fill="#fff"/>
    <g id="Group_22012" data-name="Group 22012" transform="translate(-3 -0.402)">
      <text id="MEET_Our_Team" data-name="MEET Our Team" transform="translate(851 6005.402)" fill="#b94f91" font-size="20" font-family="Poppins-Regular, Poppins"><tspan x="0" y="0">MEET OUR TEAM</tspan></text>
      <g id="right-arrow_3_" data-name="right-arrow (3)" transform="translate(1023.982 5989.493)">
        <g id="Group_16" data-name="Group 16" transform="translate(0 0)">
          <path id="Path_10" data-name="Path 10" d="M34.683,139.527h0L27.521,132.4a1.371,1.371,0,0,0-1.934,1.943l4.808,4.785H1.371a1.371,1.371,0,1,0,0,2.741H30.4l-4.808,4.785a1.371,1.371,0,0,0,1.934,1.943l7.161-7.127h0A1.372,1.372,0,0,0,34.683,139.527Z" transform="translate(0 -132)" fill="#b94f91"/>
        </g>
      </g>
    </g>
  </g>
</svg>
