<svg xmlns="http://www.w3.org/2000/svg" width="75.981" height="71.472" viewBox="0 0 75.981 71.472">
  <path id="hotel-cleaning" d="M99.625,57.916a9.149,9.149,0,0,0,2.488,3.252,9.139,9.139,0,0,0-2.488,3.251,9.141,9.141,0,0,0-2.488-3.251A9.149,9.149,0,0,0,99.625,57.916Zm-5.214,4.347c2.093.677,3.719,3.325,4.071,6.591a1.15,1.15,0,0,0,2.286,0c.352-3.268,1.987-5.918,4.071-6.593a1.155,1.155,0,0,0,0-2.191c-2.084-.675-3.719-3.325-4.071-6.591a1.15,1.15,0,0,0-2.286,0c-.352,3.267-1.978,5.916-4.071,6.591A1.155,1.155,0,0,0,94.411,62.263ZM46.358,86.231A9.53,9.53,0,0,0,43.6,82.7a9.519,9.519,0,0,0,2.761-3.529A9.343,9.343,0,0,0,49.119,82.7,9.353,9.353,0,0,0,46.358,86.231ZM51.907,83.8a1.153,1.153,0,0,0,0-2.2c-2.26-.706-4.036-3.456-4.405-6.842a1.155,1.155,0,0,0-2.295,0c-.369,3.386-2.146,6.136-4.405,6.842a1.152,1.152,0,0,0,0,2.2c2.26.708,4.036,3.457,4.405,6.842a1.155,1.155,0,0,0,2.295,0c.369-3.386,2.146-6.138,4.405-6.843Zm56.037,6.22a12.159,12.159,0,0,0-4.291-5.589,12.163,12.163,0,0,0,4.291-5.588,12.148,12.148,0,0,0,4.282,5.588A12.156,12.156,0,0,0,107.943,90.019Zm7.228-6.688c-3.13-.977-5.575-4.738-6.085-9.358a1.151,1.151,0,0,0-2.286,0c-.51,4.621-2.963,8.381-6.093,9.358a1.157,1.157,0,0,0,0,2.2c3.13.978,5.583,4.738,6.093,9.359a1.151,1.151,0,0,0,2.286,0c.51-4.621,2.954-8.381,6.085-9.359A1.153,1.153,0,0,0,115.171,83.331ZM81.213,92.5h3.878v3.878H81.213Zm-.343,6.181h4.572a1.952,1.952,0,0,0,1.952-1.956V92.155A1.952,1.952,0,0,0,85.442,90.2H80.87a1.959,1.959,0,0,0-1.961,1.956v4.571A1.96,1.96,0,0,0,80.87,98.682Zm.343-19.255h3.878V83.3H81.213Zm-.343,6.181h4.572a1.952,1.952,0,0,0,1.952-1.956V79.081a1.952,1.952,0,0,0-1.952-1.956H80.87a1.96,1.96,0,0,0-1.961,1.956v4.571A1.96,1.96,0,0,0,80.87,85.608ZM65.755,92.5h3.878v3.878H65.755Zm-.343,6.181h4.563a1.96,1.96,0,0,0,1.961-1.956V92.155A1.959,1.959,0,0,0,69.976,90.2H65.412a1.959,1.959,0,0,0-1.961,1.956v4.571A1.96,1.96,0,0,0,65.412,98.682Zm.343-19.255h3.878V83.3H65.755Zm-.343,6.181h4.563a1.96,1.96,0,0,0,1.961-1.956V79.081a1.96,1.96,0,0,0-1.961-1.956H65.412a1.96,1.96,0,0,0-1.961,1.956v4.571A1.96,1.96,0,0,0,65.412,85.608Zm34.776,36.02H95.757V94.109h2.664a1.768,1.768,0,0,1,1.767,1.766ZM50.658,95.874a1.768,1.768,0,0,1,1.767-1.766H55.09v27.519H50.658ZM62.52,115.146H88.195v6.481H62.52Zm20.3-5.1a2.8,2.8,0,1,1,2.8,2.8A2.8,2.8,0,0,1,82.822,110.047ZM63.047,111.89a2.8,2.8,0,0,1,2.8-2.794H80.606a5.081,5.081,0,0,0,.747,3.747H63.214A2.7,2.7,0,0,1,63.047,111.89ZM60,70.651a2.606,2.606,0,0,0-2.6,2.6v48.374h2.822V114a1.155,1.155,0,0,1,.642-1.031,5.106,5.106,0,0,1,4.986-6.171H81.494c.062,0,.132,0,.193,0a5.1,5.1,0,0,1,8.125,6.143A1.152,1.152,0,0,1,90.5,114v7.632h2.963V73.254a2.606,2.606,0,0,0-2.6-2.6Zm6.559-8.03a.813.813,0,0,1,.809-.807H83.482a.807.807,0,0,1,.809.807v5.728H66.555ZM98.421,91.806H95.757V73.254a4.907,4.907,0,0,0-4.9-4.9H86.594V62.622a3.116,3.116,0,0,0-3.113-3.11H67.364a3.109,3.109,0,0,0-3.1,3.11v5.728H60a4.909,4.909,0,0,0-4.906,4.9V91.806H52.425a4.076,4.076,0,0,0-4.071,4.068v26.9a1.154,1.154,0,0,0,1.152,1.152H101.34a1.148,1.148,0,0,0,1.152-1.152v-26.9a4.076,4.076,0,0,0-4.071-4.069Z" transform="translate(-39.995 -52.458)" fill="#b94f91" fill-rule="evenodd"/>
</svg>
