<svg xmlns="http://www.w3.org/2000/svg" width="77.109" height="59.552" viewBox="0 0 77.109 59.552">
  <path id="it-systems" d="M46.415,74.119H12.842v30.959H62.165V89.411a1.078,1.078,0,1,1,2.155,0v16.745a1.078,1.078,0,0,1-1.078,1.078H11.765a1.078,1.078,0,0,1-1.078-1.078V73.041a1.078,1.078,0,0,1,1.078-1.078h34.65a1.078,1.078,0,0,1,0,2.155Zm26.954,36.74V114a4.228,4.228,0,0,1-4.223,4.223H4.723A4.228,4.228,0,0,1,.5,114v-3.146a1.078,1.078,0,0,1,1.078-1.078H5.984V70.327A3.068,3.068,0,0,1,9.047,67.26H47.492a1.078,1.078,0,0,1,0,2.155H9.047a.911.911,0,0,0-.908.912v39.453H66.872V88.813a1.078,1.078,0,1,1,2.155,0v20.968h3.263A1.078,1.078,0,0,1,73.369,110.858Zm-2.155,1.078H2.655V114a2.07,2.07,0,0,0,2.068,2.068H69.145A2.07,2.07,0,0,0,71.213,114v-2.068Zm6.4-38.9a14.426,14.426,0,0,1-.25,2.688,1.078,1.078,0,0,1-.7.815l-2.447.865q-.06.152-.125.3L75.2,80.05a1.078,1.078,0,0,1-.081,1.069,14.22,14.22,0,0,1-3.8,3.8A1.077,1.077,0,0,1,70.253,85l-2.345-1.116q-.15.064-.3.123l-.866,2.447a1.078,1.078,0,0,1-.816.7,14.574,14.574,0,0,1-5.374,0,1.078,1.078,0,0,1-.816-.7l-.866-2.447q-.148-.059-.3-.123L56.232,85a1.078,1.078,0,0,1-1.069-.082,14.351,14.351,0,0,1-3.8-3.8,1.078,1.078,0,0,1-.082-1.071L52.4,77.709q-.063-.146-.124-.3l-2.449-.866a1.078,1.078,0,0,1-.7-.82,14.567,14.567,0,0,1,0-5.364,1.077,1.077,0,0,1,.7-.821l2.45-.867q.06-.151.123-.3l-1.118-2.345a1.077,1.077,0,0,1,.083-1.072,14.484,14.484,0,0,1,3.8-3.8,1.078,1.078,0,0,1,1.072-.083L58.577,62.2q.148-.064.3-.123l.867-2.447a1.078,1.078,0,0,1,.815-.7,14.388,14.388,0,0,1,5.374,0,1.078,1.078,0,0,1,.815.7l.867,2.447q.148.059.3.123l2.344-1.119a1.078,1.078,0,0,1,1.071.082,14.351,14.351,0,0,1,3.8,3.8,1.077,1.077,0,0,1,.082,1.069L74.09,68.375q.065.15.123.3l2.447.866a1.078,1.078,0,0,1,.7.816,14.459,14.459,0,0,1,.25,2.687Zm-2.155,0a12.4,12.4,0,0,0-.114-1.684l-2.322-.821a1.078,1.078,0,0,1-.661-.668,9.6,9.6,0,0,0-.428-1.04,1.078,1.078,0,0,1,0-.927l1.057-2.223A12.181,12.181,0,0,0,70.605,63.3l-2.222,1.061a1.078,1.078,0,0,1-.928,0,10.5,10.5,0,0,0-1.049-.436,1.077,1.077,0,0,1-.659-.657l-.821-2.319a12.134,12.134,0,0,0-3.367,0l-.821,2.319a1.077,1.077,0,0,1-.659.657,10.5,10.5,0,0,0-1.049.436,1.078,1.078,0,0,1-.928,0L55.88,63.3A12.3,12.3,0,0,0,53.5,65.679L54.56,67.9a1.078,1.078,0,0,1-.007.941,9.244,9.244,0,0,0-.429,1.032,1.078,1.078,0,0,1-.657.658l-2.32.821a12.281,12.281,0,0,0,0,3.369l2.32.821a1.077,1.077,0,0,1,.657.659,9.3,9.3,0,0,0,.429,1.037,1.077,1.077,0,0,1,.006.941L53.5,80.4a12.181,12.181,0,0,0,2.381,2.381L58.1,81.728a1.079,1.079,0,0,1,.927,0,9.576,9.576,0,0,0,1.04.428,1.078,1.078,0,0,1,.668.661l.821,2.322a12.54,12.54,0,0,0,3.367,0l.821-2.322a1.079,1.079,0,0,1,.668-.661,9.536,9.536,0,0,0,1.04-.428,1.078,1.078,0,0,1,.927,0l2.224,1.058a12.052,12.052,0,0,0,2.38-2.38l-1.061-2.223a1.077,1.077,0,0,1,.006-.941,8.556,8.556,0,0,0,.426-1.027,1.078,1.078,0,0,1,.661-.668l2.322-.821a12.3,12.3,0,0,0,.115-1.684Zm-4.716,0a7.493,7.493,0,1,1-7.5-7.491A7.5,7.5,0,0,1,70.738,73.041Zm-2.155,0a5.338,5.338,0,1,0-5.34,5.34A5.344,5.344,0,0,0,68.582,73.041ZM18.676,86.247a1.078,1.078,0,0,0,.783-1.818l-1.817-1.921,1.818-1.925a1.078,1.078,0,1,0-1.567-1.48l-2.517,2.666a1.078,1.078,0,0,0,0,1.48l2.517,2.661A1.074,1.074,0,0,0,18.676,86.247Zm9.865-.295a1.078,1.078,0,0,0,1.523-.042l2.517-2.661a1.078,1.078,0,0,0,0-1.48L30.065,79.1a1.078,1.078,0,1,0-1.567,1.48l1.818,1.925L28.5,84.429a1.078,1.078,0,0,0,.042,1.523Zm-7.5,2.725a1.078,1.078,0,0,0,.934-.539l5.877-10.183a1.078,1.078,0,1,0-1.867-1.077L20.107,87.061a1.078,1.078,0,0,0,.932,1.616ZM33.5,92.87H20.368a1.078,1.078,0,0,0,0,2.155H33.5a1.078,1.078,0,0,0,0-2.155Zm-17.185,0h-.153a1.078,1.078,0,0,0,0,2.155h.153a1.078,1.078,0,0,0,0-2.155ZM33.5,96.749H20.368a1.078,1.078,0,0,0,0,2.155H33.5a1.078,1.078,0,0,0,0-2.155Zm-17.185,0h-.153a1.078,1.078,0,0,0,0,2.155h.153a1.078,1.078,0,0,0,0-2.155ZM33.5,100.627H20.368a1.078,1.078,0,0,0,0,2.155H33.5a1.078,1.078,0,0,0,0-2.155Zm-17.185,0h-.153a1.078,1.078,0,0,0,0,2.155h.153a1.078,1.078,0,0,0,0-2.155Zm33.577-9.865a1.078,1.078,0,0,0-1.078,1.078v8.787h-.558V95.013a1.078,1.078,0,1,0-2.155,0v5.615h-.563V98.045a1.078,1.078,0,1,0-2.155,0v2.583h-.707V87.552a1.078,1.078,0,1,0-2.155,0v14.153a1.078,1.078,0,0,0,1.078,1.078H59.7a1.078,1.078,0,0,0,0-2.155h-.593v-3.2a1.078,1.078,0,1,0-2.155,0v3.2H56.4V93.97a1.078,1.078,0,1,0-2.155,0v6.658h-.563V97.2a1.078,1.078,0,1,0-2.155,0v3.425h-.558V91.841a1.079,1.079,0,0,0-1.078-1.078Z" transform="translate(-0.5 -58.675)" fill="#b94f91"/>
</svg>
