<svg xmlns="http://www.w3.org/2000/svg" width="74" height="77.886" viewBox="0 0 74 77.886">
  <g id="natural-gas" transform="translate(-15.125 -6.5)">
    <line id="Line_6" data-name="Line 6" y1="10" transform="translate(50.125 73.385)" fill="none" stroke="#b95696" stroke-width="2"/>
    <line id="Line_7" data-name="Line 7" y2="19" transform="translate(58.125 64.385)" fill="none" stroke="#b95696" stroke-width="2"/>
    <line id="Line_8" data-name="Line 8" y2="10" transform="translate(29.125 73.385)" fill="none" stroke="#b95696" stroke-width="2"/>
    <line id="Line_9" data-name="Line 9" y1="9" transform="translate(22.125 64.385)" fill="none" stroke="#b95696" stroke-width="2"/>
    <line id="Line_10" data-name="Line 10" y1="8" transform="translate(22.125 75.385)" fill="none" stroke="#b95696" stroke-width="2"/>
    <path id="Path_1316" data-name="Path 1316" d="M48.49,238.165A19.564,19.564,0,0,1,58.421,223.5H77.363a19.565,19.565,0,0,1,9.931,14.665" transform="translate(-27.988 -183.003)" fill="none" stroke="#b95696" stroke-width="2"/>
    <path id="Path_1317" data-name="Path 1317" d="M199.5,368.266A19.57,19.57,0,0,0,215.236,351.5" transform="translate(-155.93 -291.45)" fill="none" stroke="#b95696" stroke-width="2"/>
    <path id="Path_1318" data-name="Path 1318" d="M48.49,351.5a19.57,19.57,0,0,0,15.736,16.766" transform="translate(-27.988 -291.45)" fill="none" stroke="#b95696" stroke-width="2"/>
    <path id="Path_1319" data-name="Path 1319" d="M73.051,324.388H33.944a2.444,2.444,0,0,1-2.444-2.444h0a2.444,2.444,0,0,1,2.444-2.444H73.051a2.444,2.444,0,0,1,2.444,2.444h0A2.444,2.444,0,0,1,73.051,324.388Z" transform="translate(-13.593 -264.339)" fill="none" stroke="#b95696" stroke-width="2"/>
    <path id="Path_1320" data-name="Path 1320" d="M351.5,259.495l4.888-43.995h7.332l.814,7.332" transform="translate(-284.71 -176.226)" fill="none" stroke="#b95696" stroke-width="2"/>
    <line id="Line_11" data-name="Line 11" x1="4" y1="35" transform="translate(80.125 48.385)" fill="none" stroke="#b95696" stroke-width="2"/>
    <line id="Line_12" data-name="Line 12" x2="13" transform="translate(69.125 57.385)" fill="none" stroke="#b95696" stroke-width="2"/>
    <line id="Line_13" data-name="Line 13" x2="13" transform="translate(69.125 64.385)" fill="none" stroke="#b95696" stroke-width="2"/>
    <g id="Group_21912" data-name="Group 21912" transform="translate(53.347 7.5)">
      <path id="Path_1321" data-name="Path 1321" d="M287.942,35.608v-11a4.888,4.888,0,0,0-4.888-4.888l-.027-.373a4.874,4.874,0,0,0-4.861-4.515h0a7.333,7.333,0,1,0-7.332,7.332h0a4.888,4.888,0,0,0,4.888,4.888h0a4.888,4.888,0,0,0,4.888,4.888h1.222a1.222,1.222,0,0,1,1.222,1.222v2.444" transform="translate(-263.5 -7.5)" fill="none" stroke="#b95696" stroke-width="2"/>
    </g>
    <line id="Line_14" data-name="Line 14" y1="6.11" transform="translate(37.053 34.386)" fill="none" stroke="#b95696" stroke-width="2"/>
    <line id="Line_15" data-name="Line 15" y1="6.11" transform="translate(42.756 34.386)" fill="none" stroke="#b95696" stroke-width="2"/>
    <path id="Path_1322" data-name="Path 1322" d="M136.609,189.61V183.5H119.5v6.11" transform="translate(-88.15 -149.114)" fill="none" stroke="#b95696" stroke-width="2"/>
    <path id="Path_1323" data-name="Path 1323" d="M158.832,422.165H151.5v-11a3.666,3.666,0,0,1,3.666-3.666h0a3.666,3.666,0,0,1,3.666,3.666Z" transform="translate(-115.262 -338.896)" fill="none" stroke="#b95696" stroke-width="2"/>
    <line id="Line_16" data-name="Line 16" x2="74" transform="translate(15.125 83.385)" fill="none" stroke="#b95696" stroke-width="2"/>
    <g id="Group_21913" data-name="Group 21913" transform="translate(36.12 47.786)">
      <line id="Line_17" data-name="Line 17" x2="2" transform="translate(0.006 -0.4)" fill="none" stroke="#b95696" stroke-width="2"/>
      <line id="Line_18" data-name="Line 18" x2="2" transform="translate(5.006 -0.4)" fill="none" stroke="#b95696" stroke-width="2"/>
    </g>
  </g>
</svg>
