<svg xmlns="http://www.w3.org/2000/svg" width="64.914" height="65.617" viewBox="0 0 64.914 65.617">
  <g id="real-estate" transform="translate(-2.604)">
    <g id="_x34_8x48_px_8_" transform="translate(2.604 0)">
      <g id="Group_21934" data-name="Group 21934" transform="translate(0)">
        <g id="Group_21928" data-name="Group 21928">
          <path id="Path_1341" data-name="Path 1341" d="M14.775,49.389h-2.7V34.513H2.6V29.874L38.226,0,55.171,14.213l-1.745,2.069L38.226,3.543,5.309,31.145v.663h9.467Z" transform="translate(-2.604 0)" fill="#b94f91"/>
        </g>
        <g id="Group_21933" data-name="Group 21933" transform="translate(9.467 16.932)">
          <g id="Group_21929" data-name="Group 21929" transform="translate(0 36.514)">
            <path id="Path_1342" data-name="Path 1342" d="M83.522,407.931H72.7V395.76H83.522Zm-8.114-2.7h5.41v-6.762h-5.41Z" transform="translate(-72.703 -395.76)" fill="#b94f91"/>
          </g>
          <g id="Group_21930" data-name="Group 21930" transform="translate(14.876 24.343)">
            <path id="Path_1343" data-name="Path 1343" d="M193.678,329.976H182.859V305.633h10.819Zm-8.114-2.7h5.41V308.338h-5.41Z" transform="translate(-182.859 -305.633)" fill="#b94f91"/>
          </g>
          <g id="Group_21931" data-name="Group 21931" transform="translate(29.752 12.171)">
            <path id="Path_1344" data-name="Path 1344" d="M303.834,252.019H293.015V215.505h10.819Zm-8.114-2.7h5.41v-31.1h-5.41Z" transform="translate(-293.015 -215.505)" fill="#b94f91"/>
          </g>
          <g id="Group_21932" data-name="Group 21932" transform="translate(44.629)">
            <path id="Path_1345" data-name="Path 1345" d="M413.99,174.064H403.171V125.378H413.99Zm-8.114-2.7h5.41V128.083h-5.41Z" transform="translate(-403.171 -125.378)" fill="#b94f91"/>
          </g>
        </g>
      </g>
    </g>
  </g>
</svg>
